# xmcd
# 
# Track frame offsets:
#     150
#     15409
#     30688
#     47308
#     63455
#     80788
#     98760
# 
# Disc length: 1523
# 
# Revision: 0
# Processed by: cddbd v1.5.2PL0 Copyright (c) Steve Scherf et al.
# Submitted via: fre:ac v1.0.17
# 
DISCID=4b05f107
DTITLE=Shannon 섀넌 - Eighteen (1st Mini Album)
DYEAR=2015
DGENRE=K-Pop
TTITLE0=왜요 왜요
TTITLE1=I Know
TTITLE2=Gossip Girl
TTITLE3=20Inch
TTITLE4=Hate You
TTITLE5=숨 feat. 바스코, 기리보이
TTITLE6=새벽비
EXTD=MBK Entertainment\nUniversal Music Group International
EXTT0=
EXTT1=
EXTT2=
EXTT3=
EXTT4=
EXTT5=
EXTT6=
PLAYORDER=
